<svg width="6570" height="2632" viewBox="0 0 6570 2632" fill="none" xmlns="http://www.w3.org/2000/svg">
<path fill-rule="evenodd" clip-rule="evenodd" d="M743.003 1751.77L105.786 1802.24L0 412.72L2782.01 0L2900.37 924.586L6570 709.886L6315.69 2412.88L670.602 2632L743.003 1751.77ZM824.593 803.83C833.892 796.736 847.839 792.495 866.516 791.109C885.194 789.722 902.078 793.147 917.248 801.384C932.419 809.702 941.146 823.484 943.43 842.974L1137.06 828.458C1134.29 780.018 1120.91 741.771 1097.01 713.637C1073.11 685.584 1039.84 666.502 997.261 656.471C954.685 646.44 906.645 643.423 853.059 647.501C782.589 652.801 724.924 672.047 679.984 705.319C635.043 738.591 608.78 783.688 601.113 840.609C595.648 882.036 597.361 916.042 606.251 942.709C615.06 969.375 628.844 990.578 647.522 1006.24C666.2 1021.89 687.406 1034.45 711.222 1043.75C734.957 1053.04 759.017 1060.22 783.323 1065.2C807.629 1070.17 829.732 1075.14 849.796 1080.04C869.779 1084.93 885.439 1091.45 896.694 1099.53C907.95 1107.68 912.925 1119.02 911.457 1133.62C909.01 1146.58 901.833 1156.29 889.925 1162.73C878.017 1169.17 865.701 1172.84 852.977 1173.82C836.828 1175.04 821.82 1173.82 807.873 1170.15C793.926 1166.48 782.344 1160.53 773.209 1152.29C764.074 1144.05 758.12 1134.02 755.592 1122.2L556.906 1137.12C558.048 1186.54 571.669 1225.68 597.769 1254.47C623.869 1283.26 658.614 1303.24 702.25 1314.49C745.804 1325.75 795.557 1329.25 851.672 1325.01C929.809 1319.14 992.775 1298.59 1040.49 1263.44C1088.2 1228.29 1115.77 1180.51 1123.19 1120.16C1128.58 1078.73 1126.7 1044.97 1117.48 1018.79C1108.27 992.617 1093.91 971.903 1074.34 956.735C1054.84 941.567 1033.07 929.987 1008.92 921.914C984.782 913.922 960.639 907.806 936.415 903.647C912.191 899.488 889.843 895.002 869.453 890.109C848.981 885.217 833.157 878.693 821.902 870.619C810.565 862.464 805.997 849.824 808.199 832.617C809.831 820.548 815.295 810.925 824.593 803.83ZM1606.69 933.983L1650.57 607.786V607.705L1894.85 589.356L1807.01 1240.44L1586.63 1257L1603.1 1137.86C1602.98 1138.1 1602.88 1138.35 1602.78 1138.59L1602.78 1138.59C1602.68 1138.84 1602.57 1139.08 1602.45 1139.32C1578.55 1185.89 1549.11 1221.2 1514.2 1245.34C1479.29 1269.48 1440.88 1283.09 1398.87 1286.28C1366.9 1288.72 1337.95 1285.54 1312.01 1276.98C1285.99 1268.42 1263.64 1254.06 1244.8 1233.92C1225.96 1213.78 1212.99 1186.95 1205.82 1153.27C1198.64 1119.67 1197.9 1078.98 1203.61 1031.27L1257.61 637.225L1501.89 618.877L1454.74 969.375C1451.97 988.213 1451.07 1004.93 1452.21 1019.61C1453.36 1034.29 1456.78 1046.11 1462.49 1054.92C1468.2 1063.81 1475.22 1070.01 1483.53 1073.6C1491.85 1077.18 1502.29 1078.57 1514.85 1077.59C1529.13 1076.53 1542.67 1071.23 1555.47 1061.85C1568.28 1052.47 1578.96 1037.31 1587.53 1016.43C1596.09 995.553 1602.45 968.07 1606.69 933.983ZM2401.35 792.006L2432.43 547.848C2427.29 546.543 2421.01 545.32 2413.75 544.178C2406.49 543.036 2398.25 542.792 2389.04 543.525C2343.69 546.951 2305.84 560.488 2275.59 584.3C2245.24 608.112 2220.37 641.221 2200.71 683.627C2198.78 687.781 2196.99 692.292 2195.2 696.796L2194.71 698.02C2194.49 698.573 2194.27 699.124 2194.05 699.674C2193.92 699.993 2193.8 700.311 2193.67 700.628L2193.58 700.857C2193.48 701.094 2193.39 701.331 2193.29 701.568L2212.13 565.707L1991.75 582.261L1903.91 1233.35L2149.49 1214.92L2187.17 941.078C2190.84 911.231 2198.26 886.603 2209.52 867.194C2220.78 847.785 2235.46 832.536 2253.56 821.445C2271.75 810.354 2293.37 802.852 2318.32 798.856C2343.36 794.86 2371.01 792.577 2401.44 792.006H2401.35ZM1716.64 1432.33C1748.2 1452.96 1772.42 1481.1 1789.23 1516.9L1789.31 1516.81C1806.11 1552.61 1815.82 1593.47 1818.34 1639.3C1820.87 1685.21 1816.63 1732.59 1805.7 1781.36C1794.77 1833.55 1776.01 1881.75 1749.51 1925.95C1723 1970.15 1689.97 2005.54 1650.41 2032.04C1610.85 2058.63 1564.11 2071.84 1510.2 2071.84C1447.89 2071.84 1401.15 2055.04 1370 2021.36C1354.5 2004.64 1342.1 1985.15 1332.64 1962.97L1257.6 2321.87H1010.06L1203.28 1415.29H1425.54L1405.15 1511.76C1424.15 1484.85 1445.52 1461.69 1469.75 1443.09C1505.88 1415.29 1547.15 1401.42 1596.01 1401.42C1644.86 1401.42 1685.07 1411.7 1716.64 1432.33ZM1544.95 1816.1C1555.47 1796.37 1562.4 1775.9 1565.75 1754.86L1565.91 1754.78C1571.78 1726.97 1573.49 1700.63 1570.97 1675.84C1568.44 1651.04 1560.85 1630.82 1548.21 1615.24C1535.57 1599.75 1515.75 1591.92 1488.83 1591.92C1467.79 1591.92 1449.44 1597.79 1433.86 1609.62C1418.28 1621.44 1406.05 1636.77 1397.24 1655.69C1388.35 1674.61 1381.42 1695.08 1376.36 1716.94C1372.12 1737.98 1369.83 1758.45 1369.43 1778.18C1369.02 1798 1371.55 1815.45 1377.01 1830.62C1382.48 1845.78 1391.53 1858.18 1404.17 1867.88C1416.81 1877.59 1432.39 1882.4 1450.91 1882.4C1472.77 1882.4 1491.28 1876.28 1506.45 1864.05C1521.62 1851.9 1534.43 1835.92 1544.95 1816.1ZM2338.47 1415.2L2270.29 1737.16C2263.52 1770.84 2255.12 1797.75 2245 1817.98C2234.89 1838.2 2223.06 1852.47 2209.69 1860.87C2196.23 1869.27 2182.28 1873.51 2168.01 1873.51C2155.36 1873.51 2145.09 1871.39 2137.09 1867.23C2129.1 1862.99 2122.58 1856.3 2117.52 1847.01C2112.46 1837.79 2109.93 1825.8 2109.93 1811.04C2109.93 1796.28 2112.06 1779.73 2116.21 1761.22L2189.46 1415.2H1944.44L1861.09 1804.11C1851.79 1851.25 1849.51 1891.86 1854.16 1925.95C1858.8 1960.03 1869.73 1987.84 1887.03 2009.29C1904.23 2030.74 1925.52 2046.72 1950.81 2057.24C1976.09 2067.76 2004.72 2073.06 2036.69 2073.06C2078.78 2073.06 2118.17 2062.3 2154.79 2040.85C2191.42 2019.4 2223.39 1986.38 2250.79 1941.69C2250.91 1941.48 2251.04 1941.24 2251.16 1940.99C2251.28 1940.75 2251.4 1940.5 2251.53 1940.3L2226.16 2057.89H2447.19L2583.57 1415.2H2338.55H2338.47ZM2703.46 1166.81L2957.2 1146.09L2948.72 1331.86L2693.67 1352.74L2703.46 1166.81ZM2680.46 1415.2L2544.09 2057.98H2790.32L2926.78 1415.2H2680.46ZM3248.79 1545.28C3230.19 1545.28 3216.08 1548.46 3206.46 1554.74H3206.54C3196.83 1561.1 3190.72 1570.07 3188.19 1581.89C3184.85 1598.69 3188.43 1611.58 3198.96 1620.38C3209.48 1629.27 3224.57 1636.86 3244.39 1643.13C3264.21 1649.5 3285.9 1655.61 3309.47 1661.48C3332.96 1667.35 3356.37 1675.1 3379.53 1684.81C3402.7 1694.51 3423.33 1707.48 3441.44 1723.95C3459.55 1740.42 3472.19 1761.87 3479.37 1788.37C3486.54 1814.88 3485.89 1848.31 3477.49 1888.76C3465.75 1947.72 3435 1992.74 3385.32 2023.89C3335.65 2055.04 3272.12 2070.62 3194.63 2070.62C3139.09 2070.62 3090.23 2063.44 3048.15 2049.17C3005.98 2034.82 2973.19 2012.55 2949.62 1982.22C2926.05 1951.88 2915.53 1912.33 2918.05 1863.48H3115.03C3116.74 1875.22 3121.8 1885.58 3130.2 1894.39C3138.68 1903.28 3149.61 1909.96 3163.07 1914.61C3176.53 1919.26 3191.29 1921.54 3207.27 1921.54C3219.92 1921.54 3232.31 1918.77 3244.55 1913.31C3256.7 1907.84 3264.53 1898.79 3267.88 1886.15C3270.4 1871.8 3266.41 1860.22 3255.89 1851.41C3245.28 1842.52 3230.36 1834.94 3211.03 1828.66C3191.61 1822.38 3170.16 1815.86 3146.59 1809.09C3122.94 1802.4 3099.86 1793.51 3077.1 1782.58C3054.43 1771.66 3034.36 1757.79 3017.15 1740.91C2999.94 1724.11 2987.87 1702.26 2981.18 1675.26C2974.41 1648.35 2975.31 1614.67 2983.71 1574.23C2995.46 1518.69 3024.74 1476.2 3071.47 1446.68C3118.21 1417.24 3176.44 1402.48 3246.34 1402.48C3299.36 1402.48 3346.5 1409.01 3387.77 1422.05C3429.04 1435.1 3460.44 1456.39 3481.89 1485.83C3503.35 1515.35 3513.62 1554.08 3512.81 1602.03H3320.81C3319.91 1582.71 3312.33 1568.44 3298.05 1559.14C3283.7 1549.92 3267.39 1545.28 3248.79 1545.28ZM3806.19 1554.74C3815.81 1548.46 3829.92 1545.28 3848.52 1545.28C3867.11 1545.28 3883.43 1549.92 3897.78 1559.14C3912.05 1568.44 3919.64 1582.71 3920.54 1602.03H4112.53C4113.35 1554.08 4103.07 1515.35 4081.62 1485.83C4060.17 1456.39 4028.77 1435.1 3987.5 1422.05C3946.23 1409.01 3899.08 1402.48 3846.07 1402.48C3776.17 1402.48 3717.94 1417.24 3671.2 1446.68C3624.46 1476.2 3595.18 1518.69 3583.44 1574.23C3575.04 1614.67 3574.14 1648.35 3580.91 1675.26C3587.6 1702.26 3599.67 1724.11 3616.88 1740.91C3634.09 1757.79 3654.15 1771.66 3676.83 1782.58C3699.58 1793.51 3722.67 1802.4 3746.32 1809.09C3769.89 1815.86 3791.34 1822.38 3810.75 1828.66C3830.08 1834.94 3845.01 1842.52 3855.61 1851.41C3866.13 1860.22 3870.13 1871.8 3867.6 1886.15C3864.26 1898.79 3856.43 1907.84 3844.27 1913.31C3832.04 1918.77 3819.64 1921.54 3807 1921.54C3791.02 1921.54 3776.25 1919.26 3762.79 1914.61C3749.34 1909.96 3738.41 1903.28 3729.92 1894.39C3721.52 1885.58 3716.47 1875.22 3714.75 1863.48H3517.78C3515.25 1912.33 3525.77 1951.88 3549.35 1982.22C3572.92 2012.55 3605.71 2034.82 3647.87 2049.17C3689.96 2063.44 3738.82 2070.62 3794.36 2070.62C3871.84 2070.62 3935.38 2055.04 3985.05 2023.89C4034.72 1992.74 4065.47 1947.72 4077.22 1888.76C4085.62 1848.31 4086.27 1814.88 4079.09 1788.37C4071.92 1761.87 4059.27 1740.42 4041.17 1723.95C4023.06 1707.48 4002.42 1694.51 3979.26 1684.81C3956.1 1675.1 3932.69 1667.35 3909.2 1661.48C3885.63 1655.61 3863.93 1649.5 3844.11 1643.13C3824.29 1636.86 3809.2 1629.27 3798.68 1620.38C3788.16 1611.58 3784.57 1598.69 3787.92 1581.89C3790.44 1570.07 3796.56 1561.1 3806.27 1554.74H3806.19ZM4638.69 1540.71L4665.36 1415.2V1415.29H4887.62L4751.24 2057.98H4528.99L4545.95 1978.38C4529.56 1998.69 4511.61 2016.55 4491.79 2031.47C4455.99 2058.38 4412.84 2071.84 4364.88 2071.84C4316.93 2071.84 4276.88 2061.32 4244.91 2040.28C4212.85 2019.24 4188.63 1991.02 4172.23 1955.71C4155.84 1920.4 4146.13 1879.79 4143.2 1833.88C4140.26 1787.97 4144.26 1740.67 4155.19 1691.82C4166.12 1639.63 4184.88 1591.43 4211.38 1547.23C4237.89 1503.03 4271.33 1467.64 4311.79 1441.14C4352.16 1414.63 4398.49 1401.34 4450.69 1401.34C4497.83 1401.34 4535.92 1411.21 4564.96 1431.03C4594.07 1450.76 4615.53 1478.16 4629.39 1513.06C4632.9 1521.95 4636 1531.17 4638.69 1540.71ZM4472.14 1881.18C4493.18 1881.18 4511.29 1875.31 4526.46 1863.48H4526.54C4541.71 1851.74 4554.52 1836.16 4565.04 1816.75C4575.56 1797.43 4582.49 1777.61 4585.84 1757.39C4590.89 1736.35 4592.93 1715.71 4592.12 1695.49C4591.3 1675.27 4588.12 1657.41 4582.66 1641.83C4577.19 1626.25 4568.55 1613.86 4556.8 1604.56C4544.97 1595.35 4530.29 1590.7 4510.07 1590.7C4489.84 1590.7 4471.73 1596.81 4455.74 1609.05C4439.76 1621.28 4426.87 1637.1 4417.25 1656.43C4407.54 1675.84 4400.2 1696.47 4395.14 1718.32C4389.19 1745.23 4387.31 1771.33 4389.43 1796.61C4391.47 1821.89 4399.55 1842.28 4413.41 1857.85C4427.28 1873.43 4446.85 1881.18 4472.14 1881.18ZM5546.07 1463.81C5529.67 1442.36 5508.38 1426.38 5482.28 1415.86C5456.18 1405.34 5427.56 1400.04 5396.4 1400.04C5355.13 1400.04 5315.98 1410.8 5278.95 1432.25C5242 1453.61 5209.95 1486.32 5182.62 1530.35L5207.01 1415.2H4984.75L4848.38 2057.89H5094.62L5162.81 1734.63C5170.39 1701.77 5179.2 1675.51 5189.31 1655.69C5199.43 1635.96 5210.76 1621.61 5223.41 1612.8C5236.05 1603.99 5249.51 1599.51 5263.78 1599.51C5276.42 1599.51 5286.94 1601.87 5295.34 1606.44C5303.74 1611.09 5310.27 1617.77 5314.92 1626.66C5319.57 1635.47 5321.85 1647.29 5321.85 1661.97C5321.85 1676.65 5319.73 1693.37 5315.57 1711.88L5242.33 2057.89H5489.87L5571.92 1668.99C5582.04 1621.85 5584.32 1581.24 5578.85 1547.15C5573.39 1513.06 5562.46 1485.26 5545.98 1463.81H5546.07ZM6118.55 1590.7H5964.73L5964.64 1590.78L5920.19 1800.36C5915.14 1823.11 5914.48 1841.22 5918.32 1854.67C5922.15 1868.13 5930.39 1878.08 5942.95 1884.36C5955.51 1890.64 5973.21 1893.82 5995.96 1893.82C6006.89 1893.82 6017.17 1892.76 6026.88 1890.64C6036.58 1888.52 6046.45 1884.93 6056.57 1879.87L6017.42 2062.95C6013.17 2065.48 6006.65 2067.52 5997.84 2069.23C5989.03 2070.94 5978.75 2072 5966.93 2072.41C5955.18 2072.82 5942.54 2073.06 5929.08 2073.06C5874.36 2073.06 5828.92 2068.17 5792.71 2058.55C5756.5 2048.92 5728.93 2032.94 5710.01 2010.6C5691.08 1988.25 5680.32 1958.81 5677.79 1922.2C5675.26 1885.58 5679.5 1839.91 5690.43 1785.19L5731.87 1590.7H5638.64L5676.57 1415.2H5769.3L5818 1186.62H6050.37L6001.92 1415.2H6155.17L6118.55 1590.7Z" fill="#0056DF"/>
</svg>
